<mxfile host="app.diagrams.net" modified="2023-12-10T15:13:20.367Z" agent="Mozilla/5.0 (Macintosh; Intel Mac OS X 10_15_7) AppleWebKit/537.36 (KHTML, like Gecko) Chrome/120.0.0.0 Safari/537.36" version="22.1.7" etag="R85pC0jyWWiTkyZqdh16" type="github">
  <diagram name="Page-1" id="0euNmVITXmzt3tbx3j1B">
    <mxGraphModel>
      <root>
        <mxCell id="0" />
        <mxCell id="1" parent="0" />
      </root>
    </mxGraphModel>
  </diagram>
</mxfile>
